<?xml version="1.0" standalone="no"?><!DOCTYPE svg PUBLIC "-//W3C//DTD SVG 1.1//EN" "http://www.w3.org/Graphics/SVG/1.1/DTD/svg11.dtd"><svg t="1511403338350" class="icon" style="" viewBox="0 0 1024 1024" version="1.1" xmlns="http://www.w3.org/2000/svg" p-id="20580" xmlns:xlink="http://www.w3.org/1999/xlink" width="200" height="200"><defs><style type="text/css"></style></defs><path d="M163.34952 305.401c0 108.152 88.829 195.816 198.4 195.816 109.502 0 198.39-87.664 198.39-195.816 0-108.157-88.956-195.821-198.458-195.821-109.566 0-198.395 87.664-198.395 195.821h0.063z m465.464 79.777c0 76.341 62.653 138.116 139.9 138.116 76.994 0.283 139.652-61.522 139.964-138.053 0-76.346-62.716-138.184-139.964-138.184-76.989-0.244-139.618 61.586-139.9 138.121z m-90.877 160.315c-63.101 0-67.966 45.363-176.187 45.363-105.793 0-113.734-45.363-176.323-45.363-58.748 0-99.451 33.591-123.132 63.623C26.58452 654.157-4.19848 728.909 0.47052 781.52c3.841 42.945 25.343 132.9 361.279 132.9 345.719 0 356.853-95.746 359.734-134.811 3.583-48.283-20.351-133.022-70.915-183.221-34.746-34.477-70.014-50.895-112.632-50.895z m456.245 101.411c-25.343-39.508-61.561-85.061-110.331-82.385-36.291 1.969-39.937 28.628-164.351 29.579 46.655 59.358 68.478 143.654 64.768 194.042-1.087 14.127-3.012 34.541-17.085 55.984a493.54 493.54 0 0 0 144.892-19.596c70.394-20.936 100.923-39.83 109.112-61.074 8.195-21.311-1.72-76.978-27.005-116.55z" p-id="20581"></path></svg>