<?xml version="1.0" standalone="no"?><!DOCTYPE svg PUBLIC "-//W3C//DTD SVG 1.1//EN" "http://www.w3.org/Graphics/SVG/1.1/DTD/svg11.dtd"><svg t="1511403850344" class="icon" style="" viewBox="0 0 1024 1024" version="1.1" xmlns="http://www.w3.org/2000/svg" p-id="26013" xmlns:xlink="http://www.w3.org/1999/xlink" width="200" height="200"><defs><style type="text/css"></style></defs><path d="M509.859667 424.821475c-47.899856 0-86.740011 38.799678-86.740011 86.666872 0 47.859008 38.840155 86.657662 86.740011 86.657662 47.880412 0 86.720567-38.798655 86.720567-86.657662C596.580234 463.62013 557.74008 424.821475 509.859667 424.821475zM875.726066 390.69933l-54.326482 0c-1.707968-4.460592-3.533621-8.861832-5.427838-13.227256l41.083334-41.041742c27.100305-27.079752 27.100305-70.970378 0-98.060363l-73.582824-73.53069c-27.101328-27.080775-71.022407-27.080775-98.123735 0l-41.117104 41.097c-3.92761-1.699712-7.879781-3.350304-11.884142-4.900613l0-53.547567c0-38.297234-31.060662-69.336158-69.368676-69.336158L458.907164 78.151941c-38.327457 0-69.38812 31.038924-69.38812 69.336158L389.519044 202.921619c-2.415102 0.978281-4.81383 1.991354-7.200277 3.024893l-41.132455-41.107233c-27.100305-27.080775-71.022407-27.080775-98.123735 0l-73.582824 73.53069c-27.101328 27.089985-27.101328 70.980611 0 98.060363l41.148828 41.119513c-1.419384 3.272533-2.804997 6.563486-4.12 9.890254l-58.181434 0c-38.328481 0-70.470822 31.049157-70.470822 69.335135l0 104.008842c0 38.287001 32.143365 69.345368 70.470822 69.345368l58.459785 0c1.221878 3.071965 2.50311 6.113231 3.815042 9.138124l-41.121198 41.104163c-27.101328 27.080775-27.101328 70.961168 0 98.060363l73.582824 73.52148c27.101328 27.080775 71.022407 27.080775 98.123735 0l41.091521-41.071418c2.400775 1.039679 4.811783 2.056845 7.241211 3.041266l0 61.565171c0 38.287001 31.060662 69.325925 69.38812 69.325925l104.071434 0c38.309037 0 69.368676-31.038924 69.368676-69.325925l0-59.679217c4.017665-1.555425 7.984162-3.210112 11.924052-4.915963l41.077194 41.060161c27.100305 27.080775 71.021383 27.080775 98.123735 0l73.582824-73.52148c27.100305-27.099195 27.100305-70.979588 0-98.060363l-41.06082-41.039695c0.859612-1.983167 1.718202-3.967358 2.53995-5.970992l57.191857 0c38.309037 0 69.368676-31.039947 69.368676-69.325925l0-104.008842C945.094743 421.739277 914.035104 390.69933 875.726066 390.69933zM512.026095 702.153828c-105.37211 0-190.792001-87.523379-190.792001-192.83182 0-105.298208 85.419892-189.582823 190.792001-189.582823 105.371087 0 190.792001 84.283592 190.792001 189.582823C702.818097 614.630449 617.398205 702.153828 512.026095 702.153828z" p-id="26014"></path></svg>