<svg height="64" viewBox="0 0 1024 1024" width="64" xmlns="http://www.w3.org/2000/svg"><path d="m67.039347 100.410897h889.919259v200.231347h-889.919259z"/><path d="m67.039347 345.138668h266.976494v266.975471h-266.976494z"/><path d="m67.039347 656.610562h266.976494v266.976494h-266.976494z"/><path d="m378.511241 345.138668h266.976494v266.975471h-266.976494z"/><path d="m378.511241 656.610562h266.976494v266.976494h-266.976494z"/><path d="m689.983135 345.138668h266.976494v266.975471h-266.976494z"/><path d="m689.983135 656.610562h266.976494v266.976494h-266.976494z"/><path d="m67.039347 100.410897h889.919259v200.231347h-889.919259z"/><path d="m67.039347 345.138668h266.976494v266.975471h-266.976494z"/><path d="m67.039347 656.610562h266.976494v266.976494h-266.976494z"/><path d="m378.511241 345.138668h266.976494v266.975471h-266.976494z"/><path d="m378.511241 656.610562h266.976494v266.976494h-266.976494z"/><path d="m689.983135 345.138668h266.976494v266.975471h-266.976494z"/><path d="m689.983135 656.610562h266.976494v266.976494h-266.976494z"/></svg>