<?xml version="1.0" standalone="no"?><!DOCTYPE svg PUBLIC "-//W3C//DTD SVG 1.1//EN" "http://www.w3.org/Graphics/SVG/1.1/DTD/svg11.dtd"><svg t="1511442175577" class="icon" style="" viewBox="0 0 1024 1024" version="1.1" xmlns="http://www.w3.org/2000/svg" p-id="3349" xmlns:xlink="http://www.w3.org/1999/xlink" width="200" height="200"><defs><style type="text/css"></style></defs><path d="M194.56 289.28c-64 0-115.2 58.88-115.2 130.56s51.2 130.56 115.2 130.56 115.2-58.88 115.2-130.56c-2.56-71.68-53.76-130.56-115.2-130.56z m-51.2 327.68c-69.12 0-128 64-128 145.92v176.64h174.08l33.28-289.28c2.56-12.8 5.12-23.04 12.8-33.28h-92.16z m693.76-327.68c-64 0-115.2 58.88-115.2 130.56s51.2 130.56 115.2 130.56 115.2-58.88 115.2-130.56c-2.56-71.68-53.76-130.56-115.2-130.56z m51.2 327.68h-81.92c5.12 10.24 10.24 23.04 12.8 33.28l33.28 289.28h163.84v-176.64c-2.56-81.92-58.88-145.92-128-145.92z m-235.52-279.04c0 84.48-58.88 151.04-133.12 151.04s-133.12-66.56-133.12-151.04c0-84.48 58.88-151.04 133.12-151.04 74.24 0 133.12 69.12 133.12 151.04z m-130.56 279.04c7.68 0 17.92 0 25.6-7.68 5.12-7.68 15.36-25.6 15.36-38.4 0-15.36-25.6-17.92-40.96-17.92-15.36 0-40.96 2.56-40.96 17.92 0 12.8 10.24 33.28 15.36 38.4 5.12 7.68 15.36 7.68 25.6 7.68z m-307.2 320l33.28-281.6c7.68-38.4 33.28-66.56 66.56-71.68l117.76-20.48 58.88 153.6 7.68-76.8c0-2.56 2.56-5.12 5.12-5.12h33.28c2.56 0 5.12 2.56 5.12 5.12l7.68 74.24 58.88-153.6 117.76 20.48c33.28 5.12 61.44 33.28 66.56 71.68l33.28 281.6h-611.84z" fill="" p-id="3350"></path></svg>