<?xml version="1.0" standalone="no"?><!DOCTYPE svg PUBLIC "-//W3C//DTD SVG 1.1//EN" "http://www.w3.org/Graphics/SVG/1.1/DTD/svg11.dtd"><svg t="1511403440285" class="icon" style="" viewBox="0 0 1024 1024" version="1.1" xmlns="http://www.w3.org/2000/svg" p-id="21854" xmlns:xlink="http://www.w3.org/1999/xlink" width="200" height="200"><defs><style type="text/css"></style></defs><path d="M512 0a512 512 0 1 0 0 1024A512 512 0 0 0 512 0zM382.528 683.008l-20.736 81.984c-77.952-46.656-129.92-129.92-129.92-224.832 0-21.12 2.56-41.536 7.424-61.248a97.472 97.472 0 0 1-28.928-69.12c0-55.104 46.464-99.776 103.68-99.776 57.344 0 103.744 44.672 103.744 99.776 0 54.592-45.44 98.88-101.952 99.84a172.16 172.16 0 0 0-2.688 30.592c0 57.408 26.944 108.672 69.376 142.784z m217.728 105.984c-15.616 35.84-52.608 60.992-95.552 60.992-57.344 0-103.744-44.736-103.744-99.84s46.4-99.84 103.744-99.84c40.32 0 75.264 22.144 92.416 54.528 58.88-30.08 99.776-88.512 102.848-156.288l80.896-25.728c0.384 5.76 0.64 11.584 0.64 17.408 0 114.432-75.52 211.904-181.248 248.768z m101.376-273.216c-57.28 0-103.68-44.672-103.68-99.776 0-12.736 2.432-24.896 6.976-36.096a198.016 198.016 0 0 0-98.24-25.728c-22.272 0-43.712 3.584-63.616 10.304l-47.36-66.24a283.52 283.52 0 0 1 110.976-22.464 280.96 280.96 0 0 1 156.928 47.296c11.776-4.416 24.576-6.848 38.016-6.848 57.28 0 103.68 44.672 103.68 99.776s-46.464 99.776-103.68 99.776z" p-id="21855"></path></svg>